<?xml version="1.0" standalone="no"?>
<!DOCTYPE svg PUBLIC "-//W3C//DTD SVG 20010904//EN"
 "http://www.w3.org/TR/2001/REC-SVG-20010904/DTD/svg10.dtd">
<svg version="1.0" xmlns="http://www.w3.org/2000/svg"
 width="512.000000pt" height="512.000000pt" viewBox="0 0 512.000000 512.000000"
 preserveAspectRatio="xMidYMid meet">
<metadata>
Created by potrace 1.11, written by Peter Selinger 2001-2013
</metadata>
<g transform="translate(0.000000,512.000000) scale(0.100000,-0.100000)"
fill="#000000" stroke="none">
<path d="M2340 4909 c-773 -71 -1469 -529 -1847 -1214 -324 -586 -380 -1296
-154 -1930 188 -526 563 -973 1051 -1253 721 -413 1625 -412 2345 3 1042 601
1468 1893 985 2990 -412 934 -1365 1496 -2380 1404z m-90 -1095 c23 -12 21
-13 -32 -14 -73 0 -147 -28 -198 -74 -82 -74 -180 -98 -247 -62 l-28 15 31 1
c44 0 93 22 151 68 62 50 103 71 156 82 51 10 133 3 167 -16z m-748 -17 c27
-11 23 -12 -49 -14 -99 -1 -183 -31 -217 -76 -53 -71 -81 -157 -92 -280 -3
-40 -12 -94 -20 -121 -8 -27 -14 -63 -15 -80 l-1 -31 -15 35 c-21 48 -29 218
-13 309 15 87 69 202 110 231 64 45 232 60 312 27z m962 -221 c150 -74 208
-248 128 -389 -31 -56 -47 -64 -130 -66 -39 -1 -42 1 -32 18 17 32 12 109 -10
151 -30 60 -90 95 -159 94 -67 0 -110 -20 -148 -71 -25 -32 -28 -45 -28 -109
l0 -72 -30 5 c-54 9 -85 69 -85 164 0 127 98 249 236 293 75 24 188 16 258
-18z m-772 -78 c124 -57 201 -167 202 -287 1 -85 -17 -127 -64 -151 l-37 -19
0 59 c0 150 -147 243 -281 179 -108 -53 -144 -200 -71 -293 12 -15 20 -29 18
-31 -2 -1 -29 -6 -59 -10 -56 -7 -56 -7 -107 40 -185 165 -122 441 120 527 76
27 203 21 279 -14z m556 -206 c4 -25 -13 -52 -32 -52 -28 0 -49 27 -42 54 6
24 11 27 39 24 25 -2 33 -8 35 -26z m-578 -66 c28 -34 -11 -93 -47 -70 -32 20
-39 41 -19 63 22 24 49 27 66 7z m-554 -183 c-1 -1 -41 3 -91 9 -179 21 -234
-19 -286 -209 -57 -205 -10 -372 148 -528 l58 -58 -47 33 c-80 56 -175 162
-208 232 -67 143 -62 310 15 473 21 43 34 58 71 75 42 21 53 22 178 15 108 -6
135 -5 142 6 6 10 10 6 14 -16 4 -16 6 -31 6 -32z m2019 -142 c50 -11 149 -24
220 -31 72 -6 150 -13 175 -17 25 -3 81 -5 124 -5 44 1 83 -1 86 -3 4 -2 76
-6 161 -9 148 -5 277 -22 329 -45 22 -10 20 -11 -16 -6 -86 10 -286 24 -444
30 -299 11 -545 41 -675 84 -78 25 -69 25 40 2z m-2039 -413 c111 -181 340
-337 640 -438 119 -39 391 -100 451 -100 33 0 51 -14 33 -25 -18 -11 -11 -25
13 -25 49 0 65 -12 82 -58 10 -26 56 -133 102 -239 92 -212 94 -221 39 -275
-85 -85 -332 -140 -591 -131 -131 4 -258 25 -319 51 -62 28 -125 89 -152 147
-23 49 -23 52 -18 330 l6 280 69 3 c66 3 70 4 67 25 -4 25 -4 25 -70 0 -46
-17 -48 -17 -75 3 -16 12 -35 40 -43 66 l-16 46 -28 -15 c-35 -18 -76 -9 -107
23 -18 19 -24 37 -24 73 l0 48 -48 -5 c-86 -8 -107 37 -82 176 13 75 21 102
29 102 2 0 20 -28 42 -62z"/>
</g>
</svg>
